<svg width="16" height="17" viewBox="0 0 16 17" fill="none" xmlns="http://www.w3.org/2000/svg">
<path d="M7.99333 1.83334C4.31333 1.83334 1.33333 4.82 1.33333 8.5C1.33333 12.18 4.31333 15.1667 7.99333 15.1667C11.68 15.1667 14.6667 12.18 14.6667 8.5C14.6667 4.82 11.68 1.83334 7.99333 1.83334ZM8 13.8333C5.05333 13.8333 2.66666 11.4467 2.66666 8.5C2.66666 5.55334 5.05333 3.16667 8 3.16667C10.9467 3.16667 13.3333 5.55334 13.3333 8.5C13.3333 11.4467 10.9467 13.8333 8 13.8333ZM8.33333 5.16667H7.33333V9.16667L10.8333 11.2667L11.3333 10.4467L8.33333 8.66667V5.16667Z" fill="#00A441"/>
</svg>
