<svg width="16" height="17" viewBox="0 0 16 17" fill="none" xmlns="http://www.w3.org/2000/svg">
<path d="M7.99337 1.83334C4.31337 1.83334 1.33337 4.82001 1.33337 8.50001C1.33337 12.18 4.31337 15.1667 7.99337 15.1667C11.68 15.1667 14.6667 12.18 14.6667 8.50001C14.6667 4.82001 11.68 1.83334 7.99337 1.83334ZM8.00004 13.8333C5.05337 13.8333 2.66671 11.4467 2.66671 8.50001C2.66671 5.55334 5.05337 3.16668 8.00004 3.16668C10.9467 3.16668 13.3334 5.55334 13.3334 8.50001C13.3334 11.4467 10.9467 13.8333 8.00004 13.8333ZM8.33337 5.16668H7.33337V9.16668L10.8334 11.2667L11.3334 10.4467L8.33337 8.66668V5.16668Z" fill="#CC2610"/>
</svg>
