<svg width="21" height="20" viewBox="0 0 21 20" fill="none" xmlns="http://www.w3.org/2000/svg">
<path d="M10.5 1.66666C5.89999 1.66666 2.16666 5.39999 2.16666 9.99999C2.16666 14.6 5.89999 18.3333 10.5 18.3333C15.1 18.3333 18.8333 14.6 18.8333 9.99999C18.8333 5.39999 15.1 1.66666 10.5 1.66666ZM10.5 16.6667C6.82499 16.6667 3.83332 13.675 3.83332 9.99999C3.83332 6.32499 6.82499 3.33332 10.5 3.33332C14.175 3.33332 17.1667 6.32499 17.1667 9.99999C17.1667 13.675 14.175 16.6667 10.5 16.6667ZM14.325 6.31666L8.83332 11.8083L6.67499 9.65832L5.49999 10.8333L8.83332 14.1667L15.5 7.49999L14.325 6.31666Z" fill="#FFECE2"/>
</svg>
