<svg width="48" height="48" viewBox="0 0 48 48" fill="none" xmlns="http://www.w3.org/2000/svg">
<path d="M32.3662 6.70393C30.6167 5.03538 28.2449 4 25.6057 4H22.1999C16.311 4 11.7547 9.16128 12.4852 15.0047L12.6439 16.2744C12.9362 18.6126 12.082 20.9482 10.3503 22.5463C7.98484 24.729 7.32765 28.2032 8.73238 31.0992L8.93909 31.5253C10.2666 34.2622 13.0411 36 16.0829 36H32.5245C35.1311 36 37.5571 34.6683 38.9566 32.4693C40.9322 29.3652 40.4089 25.2929 37.7128 22.7891L37.625 22.7075C37.1378 22.2551 36.7164 21.7476 36.3662 21.1997M16.3662 36L17.1662 37.3714C20.7662 43.5429 27.9662 43.5429 31.5662 37.3714L32.3662 36" stroke="#1A0A02" stroke-width="1.5" stroke-linecap="round"/>
<path d="M38.3665 14C38.3665 16.2091 36.5756 18 34.3665 18C32.1573 18 30.3665 16.2091 30.3665 14C30.3665 11.7909 32.1573 10 34.3665 10C36.5756 10 38.3665 11.7909 38.3665 14Z" fill="#DC5B19"/>
</svg>
