<svg width="12" height="10" viewBox="0 0 12 10" fill="none" xmlns="http://www.w3.org/2000/svg">
<path d="M5.55163 0.408494C5.73504 0.0368707 6.26496 0.0368701 6.44837 0.408493L7.64702 2.83723C7.71985 2.9848 7.86063 3.08708 8.02349 3.11075L10.7038 3.50021C11.1139 3.55981 11.2776 4.06379 10.9809 4.35306L9.0414 6.24357C8.92356 6.35844 8.86979 6.52394 8.89761 6.68613L9.35545 9.35557C9.42551 9.76402 8.99679 10.0755 8.62998 9.88266L6.23267 8.62232C6.08701 8.54574 5.91299 8.54574 5.76733 8.62232L3.37003 9.88266C3.00321 10.0755 2.57449 9.76402 2.64455 9.35557L3.10239 6.68613C3.13021 6.52394 3.07644 6.35844 2.9586 6.24357L1.01914 4.35306C0.722378 4.06379 0.886132 3.55981 1.29624 3.50021L3.97651 3.11075C4.13937 3.08708 4.28015 2.9848 4.35298 2.83723L5.55163 0.408494Z" fill="#FFECE2"/>
</svg>
